<svg width="18" height="18" viewBox="0 0 18 18" xmlns="http://www.w3.org/2000/svg">
    <path d="m10.122.376.137.118 7.39 7.007a1.125 1.125 0 0 1-1.439 1.724v6.06c0 1.396-.974 2.61-2.292 2.708l-.174.007H4.582c-1.348 0-2.378-1.155-2.462-2.535l-.005-.18-.001-5.951-.195.196a1.125 1.125 0 0 1-1.486.09l-.105-.094a1.125 1.125 0 0 1-.09-1.485l.093-.106L7.776.525a1.766 1.766 0 0 1 2.346-.149zM9.04 2.44 4.361 7.097l.004.065v8.122c0 .256.112.42.187.458l.03.008h9.162c.061 0 .181-.133.21-.362l.006-.104V7.162l.003-.055L9.04 2.439z" fill="#3B3735" fill-rule="nonzero"/>
</svg>
