<svg width="79" height="22" viewBox="0 0 79 22" xmlns="http://www.w3.org/2000/svg">
    <g fill="none" fill-rule="evenodd">
        <path d="M33.808 16.056c.31 0 .62.055.93.167.309.112.58.27.81.476l-.525.797c-.403-.322-.82-.483-1.248-.483a.603.603 0 0 0-.409.13c-.1.086-.15.2-.15.342 0 .143.062.256.183.34.122.083.403.183.844.297.44.114.782.285 1.025.514.244.228.366.561.366 1 0 .438-.157.793-.468 1.066-.313.273-.723.41-1.232.41-.735 0-1.397-.288-1.985-.861l.617-.797c.5.461.963.692 1.388.692.19 0 .34-.043.448-.13a.424.424 0 0 0 .163-.349.414.414 0 0 0-.173-.35c-.115-.086-.343-.173-.684-.262-.54-.135-.935-.31-1.185-.528-.25-.217-.375-.557-.375-1.02 0-.464.158-.822.475-1.074.316-.252.711-.377 1.185-.377zm-32.772 0v4.887H0v-4.887h1.036zm5.62 0 2.278 3.146v-3.146h1.035v4.887H8.934l-2.211-3.062v3.062H5.687v-4.887h.97zm9.086 0 1.182 3.111 1.182-3.111h1.122l-1.866 4.887h-.877l-1.865-4.887h1.122zm11.483 0v.971h-2.31v1.007h2.077v.93h-2.078v1.014h2.384v.965h-3.42v-4.887h3.347zm16.724 0V17h-1.314v3.943h-1.036V17h-1.315v-.944h3.665zm6.052 0 1.195 2.685 1.202-2.685h1.395v4.887h-1.036v-3.076l-1.255 2.67h-.618l-1.248-2.67v3.076H48.6v-4.887h1.401zm11.789 0v.971h-2.31v1.008h2.077v.93H59.48v1.013h2.384v.965h-3.42v-4.887h3.347zm5.693 0 2.277 3.146v-3.146h1.036v4.887H69.76l-2.21-3.062v3.062h-1.037v-4.887h.97zm11.517 0V17h-1.371v3.943h-1.08V17h-1.372v-.944H79zM62.254 6.851h2.68v4.119c-1.184 1.284-2.822 1.926-4.916 1.926-1.753 0-3.224-.565-4.413-1.694-1.19-1.13-1.783-2.555-1.783-4.276 0-1.722.606-3.158 1.817-4.31C56.852 1.465 58.314.89 60.026.89c1.713 0 3.2.548 4.464 1.644l-1.383 1.943c-.534-.454-1.027-.766-1.476-.938a4.06 4.06 0 0 0-1.46-.258c-1.012 0-1.866.335-2.56 1.005-.694.67-1.042 1.553-1.042 2.649s.334 1.974 1 2.632c.665.659 1.459.988 2.38.988.923 0 1.69-.171 2.305-.515V6.851zM2.662 10.576H4.49c.763 0 1.334-.091 1.716-.274.381-.182.572-.542.572-1.08 0-.536-.202-.89-.606-1.062-.404-.172-1.05-.257-1.937-.257H2.662v2.673zm0-4.716h1.264c.74 0 1.29-.078 1.647-.233.359-.155.538-.49.538-1.004 0-.515-.165-.856-.495-1.022-.33-.166-.888-.249-1.673-.249h-1.28V5.86zm2.561 6.909H0V1.159h4.643c.808 0 1.505.095 2.091.283.586.189 1.027.443 1.323.764.535.598.802 1.274.802 2.026 0 .908-.301 1.584-.905 2.026a3.206 3.206 0 0 1-.427.291c-.079.039-.22.102-.426.191.74.155 1.329.48 1.767.972.438.492.657 1.104.657 1.835 0 .808-.285 1.522-.853 2.142-.66.72-1.81 1.08-3.449 1.08zM21.133 6.391c.33-.288.495-.744.495-1.37 0-.625-.171-1.054-.512-1.287-.342-.232-.94-.349-1.793-.349h-1.997v3.438h1.946c.91 0 1.53-.144 1.86-.432m3.21-1.378c0 1.86-.757 3.061-2.27 3.604l3.021 4.152h-3.277L19.17 9.065h-1.844v3.704h-2.663V1.159h4.523c1.856 0 3.179.306 3.97.914.79.61 1.186 1.59 1.186 2.94M45.637 9.58c.654-.598.981-1.467.981-2.608 0-1.14-.327-2.017-.981-2.632-.655-.614-1.66-.921-3.014-.921h-1.485v7.058h1.69c1.217 0 2.154-.3 2.809-.897m1.954-6.9c1.138 1.013 1.707 2.422 1.707 4.226 0 1.805-.555 3.233-1.664 4.285-1.11 1.052-2.803 1.578-5.079 1.578h-4.08V1.159h4.217c2.128 0 3.76.508 4.899 1.52M78.812 1.16v2.308h-5.94V5.86h5.342v2.209h-5.343v2.408H79v2.292h-8.791V1.159z" fill="#FEFEFE"/>
        <path fill="#FEFEFE" d="m22.358 8.996 2.775 3.772h-3.307L19.12 8.996z"/>
        <path fill="#EF8226" d="M41.2 1.16h-6.617L21.811 12.769h6.616z"/>
    </g>
</svg>
