<svg width="257" height="19" viewBox="0 0 257 19" xmlns="http://www.w3.org/2000/svg" xmlns:xlink="http://www.w3.org/1999/xlink">
    <defs>
        <path id="a" d="M0 0h17.442v19H0z"/>
        <path id="c" d="m0 0 4.245 5.968h5.191L5.08 0z"/>
    </defs>
    <g fill="none" fill-rule="evenodd">
        <path d="M189 4c.638 0 1.276.11 1.914.332.637.221 1.193.535 1.666.94l-1.078 1.577c-.83-.636-1.686-.954-2.57-.954-.355 0-.635.085-.84.256a.838.838 0 0 0-.307.677c0 .282.125.505.375.671.251.166.829.362 1.736.588.907.226 1.61.565 2.11 1.017.502.452.752 1.11.752 1.977s-.321 1.57-.963 2.11c-.642.54-1.487.809-2.534.809-1.513 0-2.875-.567-4.086-1.701l1.27-1.577c1.03.913 1.982 1.369 2.856 1.369.392 0 .7-.085.923-.256a.826.826 0 0 0 .334-.691c0-.29-.118-.521-.355-.692-.237-.17-.706-.343-1.407-.519-1.111-.267-1.925-.615-2.439-1.044-.515-.429-.772-1.101-.772-2.02 0-.916.326-1.624.977-2.122C187.213 4.249 188.026 4 189 4zm-47.868 0v9.668H139V4h2.132zm6.2 0 4.688 6.224V4h2.131v9.668h-2.131l-4.55-6.058v6.058h-2.132V4h1.995zm13.896 0 2.431 6.155L166.092 4h2.309l-3.84 9.668h-1.804L158.92 4h2.309zm19.063 0v1.922h-4.755v1.992h4.277v1.84h-4.277v2.006h4.906v1.908h-7.037V4h6.886zm24.196 0v1.867h-2.705v7.8h-2.132v-7.8h-2.705V4h7.542zm7.111 0 2.46 5.311L216.53 4h2.87v9.668h-2.132V7.582l-2.583 5.283h-1.27l-2.57-5.283v6.086h-2.13V4h2.882zm19.395 0v1.922h-4.755v1.992h4.277v1.84h-4.277v2.006h4.905v1.908h-7.036V4h6.886zm6.878 0 4.687 6.224V4h2.132v9.668h-2.132l-4.55-6.058v6.058h-2.131V4h1.994zM257 4v1.867h-2.705v7.8h-2.132v-7.8h-2.705V4H257z" fill="#14417A"/>
        <g transform="translate(84.48)">
            <mask id="b" fill="#fff">
                <use xlink:href="#a"/>
            </mask>
            <path d="M13.236 9.434h4.206v6.518C15.584 17.984 13.012 19 9.726 19c-2.751 0-5.06-.893-6.926-2.68C.933 14.531 0 12.276 0 9.551 0 6.83.951 4.555 2.853 2.733 4.756.911 7.051 0 9.739 0c2.689 0 5.024.867 7.007 2.602l-2.17 3.074c-.84-.718-1.613-1.212-2.318-1.484a6.328 6.328 0 0 0-2.291-.408c-1.59 0-2.93.53-4.02 1.59-1.088 1.06-1.634 2.457-1.634 4.192 0 1.734.523 3.123 1.568 4.165 1.044 1.042 2.291 1.564 3.737 1.564 1.448 0 2.654-.272 3.618-.815V9.434z" fill="#14417A" mask="url(#b)"/>
        </g>
        <path d="M4.18 15.33h2.867c1.196 0 2.093-.145 2.692-.434.598-.29.898-.858.898-1.708s-.317-1.41-.952-1.682c-.634-.272-1.647-.408-3.04-.408H4.179v4.231zm0-7.464h1.983c1.16 0 2.022-.122 2.585-.368.563-.245.844-.775.844-1.59 0-.815-.26-1.353-.777-1.616-.519-.263-1.393-.394-2.626-.394h-2.01v3.968zm4.018 10.932H0V.428h7.288c1.268 0 2.362.15 3.282.448.92.298 1.611.7 2.076 1.209.84.946 1.26 2.014 1.26 3.206 0 1.436-.474 2.505-1.42 3.206-.322.245-.545.398-.67.46-.125.061-.348.162-.67.302 1.161.245 2.085.758 2.773 1.537.688.78 1.032 1.748 1.032 2.904 0 1.279-.447 2.41-1.34 3.39-1.036 1.14-2.84 1.708-5.413 1.708zM33.17 8.707c.519-.455.777-1.178.777-2.168 0-.99-.268-1.669-.804-2.037-.536-.368-1.473-.552-2.813-.552h-3.135v5.44h3.054c1.43 0 2.403-.227 2.922-.683m5.037-2.181c0 2.943-1.189 4.844-3.564 5.702l4.742 6.57h-5.144l-4.153-5.86h-2.894v5.86h-4.18V.428h7.1c2.912 0 4.989.483 6.23 1.446 1.241.964 1.863 2.514 1.863 4.652M71.632 13.753c1.027-.946 1.54-2.322 1.54-4.126 0-1.805-.513-3.193-1.54-4.166-1.028-.972-2.604-1.458-4.73-1.458h-2.33v11.169h2.652c1.91 0 3.38-.473 4.408-1.42M74.7 2.835c1.785 1.602 2.679 3.832 2.679 6.688 0 2.855-.87 5.115-2.612 6.78-1.742 1.664-4.4 2.496-7.972 2.496h-6.404V.428h6.62c3.339 0 5.902.803 7.689 2.406M123.705.429v3.653h-9.325v3.784h8.387v3.495h-8.387v3.81H124v3.627h-13.799V.428z" fill="#14417A"/>
        <path d="M60.39 8.215h4.185V.463H60.39z"/>
        <g transform="translate(30.013 12.83)">
            <mask id="d" fill="#fff">
                <use xlink:href="#c"/>
            </mask>
            <path mask="url(#d)" d="m0 0 4.245 5.968h5.191L5.08 0z"/>
        </g>
        <path fill="#EF8226" d="M64.667.429H54.282l-20.047 18.37H44.62z"/>
    </g>
</svg>
