<svg width="79" height="21" viewBox="0 0 79 21" xmlns="http://www.w3.org/2000/svg">
    <g fill="none" fill-rule="evenodd">
        <path d="M33.808 15.75c.31 0 .62.058.93.174.309.116.58.281.81.494l-.525.828c-.403-.334-.82-.501-1.248-.501a.588.588 0 0 0-.409.134c-.1.09-.15.208-.15.356s.062.265.183.352c.122.087.403.19.844.309.44.118.782.296 1.025.534.244.237.366.583.366 1.038 0 .455-.157.824-.468 1.107-.313.283-.723.425-1.232.425-.735 0-1.397-.298-1.985-.893l.617-.828c.5.48.963.719 1.388.719.19 0 .34-.045.448-.134a.447.447 0 0 0 .163-.364.436.436 0 0 0-.173-.363c-.115-.09-.343-.18-.684-.272-.54-.14-.935-.323-1.185-.548-.25-.225-.375-.579-.375-1.06 0-.482.158-.854.475-1.115.316-.261.711-.392 1.185-.392zm-32.772 0v5.076H0V15.75h1.036zm5.62 0 2.278 3.268V15.75h1.035v5.076H8.934l-2.211-3.18v3.18H5.687V15.75h.97zm9.086 0 1.182 3.231 1.182-3.231h1.122l-1.866 5.076h-.877L14.62 15.75h1.122zm11.483 0v1.01h-2.31v1.045h2.077v.966h-2.078v1.053h2.384v1.002h-3.42V15.75h3.347zm16.724 0v.98h-1.314v4.096h-1.036V16.73h-1.315v-.98h3.665zm6.052 0 1.195 2.788 1.202-2.788h1.395v5.076h-1.036V17.63l-1.255 2.773h-.618l-1.248-2.773v3.195H48.6V15.75h1.401zm11.789 0v1.01h-2.31v1.045h2.077v.966H59.48v1.053h2.384v1.002h-3.42V15.75h3.347zm5.693 0 2.277 3.268V15.75h1.036v5.076H69.76l-2.21-3.18v3.18h-1.037V15.75h.97zm11.517 0v.98h-1.371v4.096h-1.08V16.73h-1.372v-.98H79zM62.254 6.191h2.68v4.277c-1.184 1.334-2.822 2-4.916 2-1.753 0-3.224-.585-4.413-1.758-1.19-1.173-1.783-2.653-1.783-4.441 0-1.788.606-3.28 1.817-4.475C56.852.598 58.314 0 60.026 0c1.713 0 3.2.57 4.464 1.707l-1.383 2.018c-.534-.471-1.027-.796-1.476-.974a3.927 3.927 0 0 0-1.46-.267c-1.012 0-1.866.347-2.56 1.043s-1.042 1.612-1.042 2.75c0 1.139.334 2.05 1 2.734.665.684 1.459 1.026 2.38 1.026.923 0 1.69-.178 2.305-.534V6.19zM2.662 10.06H4.49c.763 0 1.334-.095 1.716-.284.381-.19.572-.564.572-1.121 0-.558-.202-.926-.606-1.104-.404-.179-1.05-.268-1.937-.268H2.662v2.777zm0-4.898h1.264c.74 0 1.29-.08 1.647-.241.359-.161.538-.51.538-1.044s-.165-.888-.495-1.06c-.33-.173-.888-.259-1.673-.259h-1.28v2.604zm2.561 7.175H0V.28h4.643c.808 0 1.505.098 2.091.294.586.195 1.027.46 1.323.793.535.62.802 1.322.802 2.104 0 .943-.301 1.644-.905 2.104a3.2 3.2 0 0 1-.427.302c-.079.04-.22.106-.426.198.74.161 1.329.498 1.767 1.01.438.51.657 1.146.657 1.905 0 .84-.285 1.58-.853 2.225-.66.747-1.81 1.12-3.449 1.12zM21.133 5.714c.33-.299.495-.773.495-1.423s-.171-1.095-.512-1.336c-.342-.242-.94-.363-1.793-.363h-1.997v3.57h1.946c.91 0 1.53-.149 1.86-.448m3.21-1.431c0 1.931-.757 3.179-2.27 3.742l3.021 4.312h-3.277L19.17 8.49h-1.844v3.846h-2.663V.28h4.523c1.856 0 3.179.317 3.97.949.79.633 1.186 1.65 1.186 3.053M45.637 9.025c.654-.62.981-1.523.981-2.707s-.327-2.096-.981-2.734c-.655-.638-1.66-.957-3.014-.957h-1.485v7.33h1.69c1.217 0 2.154-.31 2.809-.932M47.59 1.86c1.138 1.051 1.707 2.515 1.707 4.389s-.555 3.357-1.664 4.45c-1.11 1.092-2.803 1.638-5.079 1.638h-4.08V.28h4.217c2.128 0 3.76.527 4.899 1.579M78.812.281V2.68h-5.94v2.483h5.342v2.294h-5.343v2.5H79v2.38h-8.791V.282z" fill="#14417A"/>
        <path fill="#14417A" d="m22.358 8.42 2.775 3.916h-3.307L19.12 8.42z"/>
        <path fill="#EF8226" d="M41.2.281h-6.617L21.811 12.337h6.616z"/>
    </g>
</svg>
